Coordinates
version=1
nRows=16
nColumns=38
inDegrees=no

Units are S.I. units (second, meters, Newtons, ...)
If the header above contains a line with 'inDegrees', this indicates whether rotational values are in degrees (yes) or radians (no).

endheader
time	pelvis_tilt	pelvis_list	pelvis_rotation	pelvis_tx	pelvis_ty	pelvis_tz	hip_flexion_r	hip_adduction_r	hip_rotation_r	knee_angle_r	ankle_angle_r	subtalar_angle_r	mtp_angle_r	hip_flexion_l	hip_adduction_l	hip_rotation_l	knee_angle_l	ankle_angle_l	subtalar_angle_l	mtp_angle_l	lumbar_extension	lumbar_bending	lumbar_rotation	arm_flex_r	arm_add_r	arm_rot_r	elbow_flex_r	pro_sup_r	wrist_flex_r	wrist_dev_r	arm_flex_l	arm_add_l	arm_rot_l	elbow_flex_l	pro_sup_l	wrist_flex_l	wrist_dev_l
2.7875	-0.193895	0.000788024	-3.08368	-0.183389	0.958473	-0.00199792	0.268955	0.00584164	-0.18015	0.275801	-0.0741154	0	0	-0.330268	0.0293334	-0.00683525	0.418274	0.384673	0	0	-0.431708	0.0286245	-0.190014	0.162552	-0.297675	1.45409	0.429392	0.0962542	0	0	0.45857	-0.505333	1.04542	0.837255	0.547025	0	0
2.79749	-0.194447	0.00288448	-3.07446	-0.186105	0.958444	-0.00301362	0.267704	0.00487872	-0.191556	0.298031	-0.0758496	0	0	-0.327944	0.0193106	-0.00506943	0.444122	0.375428	0	0	-0.429573	0.0352184	-0.192395	0.162608	-0.296973	1.45409	0.428249	0.0955342	0	0	0.448731	-0.494106	1.07321	0.819885	0.524384	0	0
2.80748	-0.194732	0.00524224	-3.06569	-0.188902	0.958521	-0.00413616	0.26606	0.00434846	-0.202799	0.319567	-0.0748106	0	0	-0.323439	0.00859352	-0.00463736	0.472794	0.362451	0	0	-0.426935	0.0417435	-0.193393	0.162571	-0.296626	1.4541	0.427277	0.0946032	0	0	0.438801	-0.481927	1.10398	0.801273	0.497579	0	0
2.81747	-0.19471	0.00789096	-3.05762	-0.191742	0.958699	-0.00537909	0.264006	0.0044716	-0.213437	0.340053	-0.0708939	0	0	-0.31655	-0.00280799	-0.00575202	0.504415	0.345505	0	0	-0.423836	0.0481446	-0.1928	0.162574	-0.296704	1.45411	0.426573	0.0936043	0	0	0.428731	-0.468916	1.13714	0.781729	0.466917	0	0
2.82746	-0.194382	0.0108543	-3.05047	-0.194582	0.958974	-0.00675047	0.261471	0.00543798	-0.223117	0.359118	-0.0642684	0	0	-0.307158	-0.0148748	-0.0085267	0.539031	0.324473	0	0	-0.420369	0.0543774	-0.19049	0.162782	-0.297264	1.45411	0.426233	0.0926977	0	0	0.418428	-0.455254	1.17181	0.761638	0.432975	0	0
2.83746	-0.193788	0.014141	-3.04438	-0.19738	0.959339	-0.00825127	0.258339	0.00738426	-0.231588	0.376394	-0.0553232	0	0	-0.295241	-0.0275689	-0.012949	0.576592	0.299401	0	0	-0.416677	0.0604079	-0.186446	0.163389	-0.29834	1.45411	0.426354	0.0920524	0	0	0.407749	-0.4412	1.20688	0.741447	0.396644	0	0
2.84745	-0.193011	0.0177399	-3.03942	-0.200091	0.959789	-0.009875	0.254462	0.0103838	-0.238701	0.391558	-0.0445767	0	0	-0.280877	-0.0408242	-0.0188685	0.61695	0.27053	0	0	-0.412945	0.06621	-0.180768	0.164607	-0.299942	1.45411	0.427025	0.0918332	0	0	0.396515	-0.427062	1.24102	0.721631	0.359081	0	0
2.85744	-0.19216	0.0216193	-3.03562	-0.202673	0.960317	-0.0116076	0.249682	0.0144424	-0.244426	0.404382	-0.0325875	0	0	-0.264234	-0.0545402	-0.0259955	0.659855	0.238307	0	0	-0.409384	0.0717662	-0.173652	0.166646	-0.302056	1.45411	0.428312	0.0921882	0	0	0.384564	-0.413165	1.27289	0.702634	0.321489	0	0
2.86743	-0.191368	0.0257237	-3.03287	-0.205088	0.960917	-0.0134274	0.243851	0.0194965	-0.248838	0.414745	-0.0198821	0	0	-0.245557	-0.0685765	-0.0339194	0.704956	0.203365	0	0	-0.406215	0.0770658	-0.165377	0.169699	-0.304654	1.4541	0.430255	0.0932449	0	0	0.371769	-0.399821	1.30128	0.684843	0.285056	0	0
2.87742	-0.190774	0.0299778	-3.03104	-0.2073	0.961584	-0.0153066	0.236832	0.0254221	-0.252085	0.42262	-0.00692102	0	0	-0.225148	-0.082754	-0.042151	0.751811	0.166484	0	0	-0.403654	0.0821019	-0.156273	0.173929	-0.307694	1.45409	0.432862	0.0950953	0	0	0.358072	-0.387291	1.3253	0.668539	0.250789	0	0
2.88741	-0.190515	0.0342918	-3.02993	-0.209282	0.962314	-0.0172142	0.228522	0.032049	-0.254341	0.428066	0.00591534	0	0	-0.203349	-0.0968606	-0.0501833	0.799889	0.12854	0	0	-0.401887	0.0868639	-0.146668	0.179445	-0.311131	1.45408	0.436113	0.0977849	0	0	0.343515	-0.375741	1.34462	0.653853	0.219332	0	0
2.8974	-0.190704	0.0385646	-3.02934	-0.211012	0.963104	-0.0191194	0.218861	0.0391781	-0.255768	0.431215	0.0183339	0	0	-0.180514	-0.110662	-0.0575594	0.848589	0.090447	0	0	-0.401056	0.0913298	-0.136859	0.186299	-0.314915	1.45405	0.439962	0.101317	0	0	0.328227	-0.365235	1.35939	0.640774	0.190976	0	0
2.90739	-0.19142	0.0426882	-3.02907	-0.212481	0.963952	-0.0209952	0.207849	0.0465974	-0.256505	0.432259	0.0301244	0	0	-0.157002	-0.123913	-0.0639283	0.897248	0.0531249	0	0	-0.401244	0.095461	-0.127093	0.194495	-0.318998	1.45403	0.444337	0.105652	0	0	0.312377	-0.355771	1.37008	0.629201	0.165779	0	0
2.91738	-0.192695	0.0465524	-3.02897	-0.213687	0.964856	-0.0228196	0.195546	0.0540955	-0.256656	0.431423	0.0411493	0	0	-0.133145	-0.136373	-0.069072	0.945176	0.0174867	0	0	-0.402467	0.0991997	-0.117556	0.203989	-0.323324	1.45401	0.44915	0.110723	0	0	0.296147	-0.347296	1.3773	0.618985	0.143658	0	0
2.92737	-0.194503	0.0500482	-3.02893	-0.214635	0.965816	-0.0245766	0.182068	0.0614701	-0.256295	0.42894	0.0513329	0	0	-0.109243	-0.147816	-0.0729052	0.991679	-0.0155506	0	0	-0.404669	0.102468	-0.108366	0.21469	-0.327835	1.45399	0.454291	0.116446	0	0	0.279709	-0.339732	1.38173	0.609956	0.124451	0	0
2.93737	-0.196776	0.053072	-3.02888	-0.215343	0.966828	-0.0262568	0.167578	0.0685376	-0.255464	0.425038	0.0606489	0	0	-0.0855508	-0.158037	-0.0754597	1.0361	-0.0450531	0	0	-0.407732	0.105169	-0.0995749	0.226466	-0.332473	1.45398	0.459644	0.122733	0	0	0.263218	-0.332991	1.38402	0.601954	0.107955	0	0
